# xmcd
#
# Track frame offsets:
# 150
# 21358
# 38546
# 48943
# 61267
# 76563
# 89017
# 99834
# 112347
# 128091
#
# Disc length: 1913 seconds
#
#
# Revision: 0
# Processed by: cddbd v1.5.1PL2 Copyright (c) Steve Scherf et al.
# Submitted via: FreeRIP 2.944 
#
DISCID=7407770a
DTITLE=B. B. King - The Best Collection Vol. 2
DYEAR=1900
DGENRE=Blues
TTITLE0=Every Day (I Have The Blues)
TTITLE1=Evil Child
TTITLE2=Fine Looking Woman
TTITLE3=Highway Bound
TTITLE4=How Blues Cant You Get
TTITLE5=I Gotta Find My Baby
TTITLE6=I Love You
TTITLE7=I´m Working On The Building
TTITLE8=It´s My Own Fault Baby
TTITLE9=Lonely Night
EXTD=
EXTT0=
EXTT1=
EXTT2=
EXTT3=
EXTT4=
EXTT5=
EXTT6=
EXTT7=
EXTT8=
EXTT9=
PLAYORDER=
